#!OML:ASF F:\VICON\USERDATA\INSTALL\rory3\rory3.ASF
:FULLY-SPECIFIED
:DEGREES
1
root 0.3860600000000001 16.9038 -30.428199999999954 3.972529999999999 0.15576599999999985 -5.642000000000001
lfemur -29.52840000000002 4.835639999999993 -10.990500000000008
ltibia 96.4859999999999
lfoot 7.911599999999991 -15.588699999999996
ltoes 1.918149999999991
rfemur -22.22300000000001 11.006700000000004 34.775800000000004
rtibia 51.645500000000006
rfoot -26.802699999999962 -10.10110000000001
rtoes 3.7888300000000017
lowerback -8.881784189112644e-10 1.2926699999999998 2.5111099999999986
upperback 0.6855990000000014 2.564 3.4998099999999956
thorax -9.404590000000002 1.19911 1.7175899999999982
lowerneck -21.984199999999998 -3.4510200000000006 -1.9348
upperneck 8.162740000000001 -4.35255 2.1490000000000027
head 6.08165 -1.98739 0.510118
lclavicle -1.0038600000000014e-14 1.9878500000000013e-15
lhumerus -50.8669 -10.1436 95.4173
lradius 101.571
lwrist 27.446
lhand -30.3691 5.269379999999998
lfingers 7.12502
lthumb -3.673930000000001 35.2175
rclavicle -1.0038600000000014e-14 1.9878500000000013e-15
rhumerus -35.5338 12.069200000000004 -93.39509999999999
rradius 96.6855
rwrist -7.909739999999999
rhand -23.203299999999995 -8.881784189112644e-10
rfingers 7.12502
rthumb 3.2467799999999967 10.6029
2
root 0.43080000000000007 17.0733 -28.62590000000006 5.448910000000003 2.1255699999999944 -5.613110000000005
lfemur -38.8096 2.556119999999996 -12.188199999999977
ltibia 94.6789
lfoot 2.8036400000000037 -9.798429999999998
ltoes -0.8535160000000097
rfemur -13.952599999999999 9.963029999999991 35.6072
rtibia 45.69499999999999
rfoot -26.90270000000005 -11.206000000000007
rtoes -0.18694199999999972
lowerback -8.881784189112644e-10 1.3447000000000002 3.4439100000000025
upperback -0.837985 2.8175399999999984 3.405439999999995
thorax -10.205400000000001 1.262770000000001 1.0514799999999997
lowerneck -17.6805 -3.77723 -2.6712200000000004
upperneck 6.062880000000005 -4.73445 2.8258100000000015
head 4.78686 -2.19465 0.880488
lclavicle -4.075090000000005e-15 -2.3456599999999954e-14
lhumerus -58.715100000000014 -10.082899999999999 97.3979
lradius 104.526
lwrist 29.1444
lhand -29.4156 4.182030000000001
lfingers 7.12502
lthumb -2.75312 34.144
rclavicle -4.075090000000005e-15 -2.3456599999999954e-14
rhumerus -34.54029999999999 13.8356 -94.01529999999998
rradius 102.332
rwrist -10.995700000000001
rhand -23.266099999999998 -8.881784189112644e-10
rfingers 7.12502
rthumb 3.1861400000000044 9.816029999999996
3
root 0.5078950000000002 17.4658 -26.718499999999963 6.530139999999998 2.770949999999999 -5.326649999999996
lfemur -43.41210000000003 0.04460350000000013 -13.69239999999999
ltibia 86.21699999999993
lfoot -4.317299999999989 -5.788050000000006
ltoes -8.604770000000004
rfemur -5.9157999999999955 9.585979999999992 36.00689999999999
rtibia 40.108200000000025
rfoot -19.809699999999975 -8.89169000000001
rtoes -6.897509999999993
lowerback -8.881784189112644e-10 2.211590000000002 4.747080000000005
upperback -0.794698 4.006059999999997 2.532300000000002
thorax -8.97584 1.767169999999998 -0.8384149999999989
lowerneck -19.6023 -4.662929999999999 -1.8056999999999999
upperneck 5.766939999999994 -6.050629999999998 2.6918699999999998
head 4.994309999999998 -2.807490000000001 0.5444380000000001
lclavicle -3.647699999999996e-14 -7.951390000000023e-15
lhumerus -62.359 -10.4565 97.5432
lradius 106.551
lwrist 30.179399999999998
lhand -27.752900000000004 3.61595
lfingers 7.12502
lthumb -1.1472799999999959 33.5926
rclavicle -3.647699999999996e-14 -7.951390000000023e-15
rhumerus -31.42059999999998 13.962500000000002 -93.97679999999998
rradius 107.463
rwrist -12.193800000000003
rhand -23.597600000000003 -8.881784189112644e-10
rfingers 7.12502
rthumb 2.865980000000004 8.53288
4
root 0.5856699999999998 17.9246 -24.805400000000077 6.655580000000004 3.703279999999995 -5.203539999999997
lfemur -44.14759999999997 -3.2235000000000005 -14.358799999999992
ltibia 72.65549999999998
lfoot -6.911240000000009 -5.434869999999994
ltoes -6.912289999999999
rfemur 0.18561499999998432 6.523899999999999 35.464200000000005
rtibia 36.39319999999998
rfoot -5.76571 -3.4481799999999976
rtoes -7.49340000000001
lowerback -8.881784189112644e-10 2.3838200000000027 5.828140000000008
upperback -1.2094899999999993 4.375929999999997 2.107899999999998
thorax -9.05046 1.8738600000000014 -1.9602000000000004
lowerneck -18.647 -4.708300000000001 -1.7377300000000004
upperneck 5.341970000000005 -6.14918 2.86522
head 4.71984 -2.8558500000000016 0.6028599999999995
lclavicle -7.056860000000015e-15 9.144090000000005e-15
lhumerus -65.85520000000002 -7.333820000000005 96.5987
lradius 107.075
lwrist 30.016800000000003
lhand -27.229300000000002 3.7385600000000005
lfingers 7.12502
lthumb -0.6415680000000048 33.7173
rclavicle -7.056860000000015e-15 9.144090000000005e-15
rhumerus -30.642999999999976 15.709499999999998 -94.5411
rradius 109.69500000000001
rwrist -10.332
rhand -25.642499999999995 -8.881784189112644e-10
rfingers 7.12502
rthumb 0.8910459999999958 9.252620000000002
5
root 0.6595750000000002 18.3307 -22.776500000000027 5.745529999999997 4.605350000000004 -3.9756599999999995
lfemur -40.386799999999965 -6.109890000000015 -16.01359999999999
ltibia 54.98599999999999
lfoot -8.966970000000009 -6.996279999999996
ltoes -7.8011800000000004
rfemur 6.819080000000035 2.3107299999999986 32.6689
rtibia 31.99470000000001
rfoot 12.598199999999977 0.023168999999993112
rtoes -1.950639999999993
lowerback -8.881784189112644e-10 2.5900100000000017 5.5249
upperback -0.9147540000000003 4.462429999999994 1.5971900000000006
thorax -8.14373 1.9559700000000029 -2.288570000000005
lowerneck -18.0271 -4.905709999999998 -1.7330500000000004
upperneck 5.974099999999993 -6.468829999999997 3.094759999999999
head 4.8382200000000015 -2.996140000000001 0.6470839999999998
lclavicle -1.1131899999999998e-14 -7.553819999999988e-15
lhumerus -67.84869999999997 -4.414679999999996 95.3813
lradius 106.44499999999998
lwrist 28.5728
lhand -28.6386 2.885670000000001
lfingers 7.12502
lthumb -2.00265 32.856
rclavicle -1.1131899999999998e-14 -7.553819999999988e-15
rhumerus -29.894199999999977 15.867700000000001 -94.3004
rradius 110.09800000000001
rwrist -11.7593
rhand -20.2438 -8.881784189112644e-10
rfingers 7.12502
rthumb 6.104419999999999 16.27789999999999
6
root 0.6980540000000008 18.5858 -20.763999999999953 5.594019999999999 4.400119999999993 -3.415670000000002
lfemur -35.87089999999996 -7.613480000000017 -16.41549999999999
ltibia 35.84920000000003
lfoot -2.977629999999998 -9.665549999999998
ltoes -6.47151
rfemur 10.239599999999964 3.08162 31.599700000000006
rtibia 32.13100000000003
rfoot 27.552999999999937 -2.4717899999999955
rtoes 5.874530000000009
lowerback -8.881784189112644e-10 3.0899299999999963 5.032290000000004
upperback -1.4780100000000016 4.9841600000000055 1.28153
thorax -8.12913 2.218579999999999 -2.3971599999999937
lowerneck -16.288899999999998 -5.189330000000001 -1.4012399999999994
upperneck 7.038630000000005 -6.9494600000000055 2.8002100000000008
head 4.887460000000001 -3.2512499999999993 0.4829489999999992
lclavicle -1.1827700000000028e-14 3.9756899999999976e-16
lhumerus -70.27180000000004 -2.9069000000000145 94.5319
lradius 106.532
lwrist 27.3314
lhand -35.305399999999985 7.7571200000000005
lfingers 7.12502
lthumb -8.439520000000005 37.5685
rclavicle -1.1827700000000028e-14 3.9756899999999976e-16
rhumerus -32.127799999999986 16.4708 -95.6114
rradius 110.00400000000002
rwrist -9.46259
rhand -22.2666 -8.881784189112644e-10
rfingers 7.12502
rthumb 4.151369999999998 9.904520000000005
